<?xml version="1.0" standalone="no"?>
<!DOCTYPE svg PUBLIC "-//W3C//DTD SVG 20010904//EN"
 "http://www.w3.org/TR/2001/REC-SVG-20010904/DTD/svg10.dtd">
<svg version="1.0" xmlns="http://www.w3.org/2000/svg"
 width="185.000000pt" height="40.000000pt" viewBox="0 0 185.000000 40.000000"
 preserveAspectRatio="xMidYMid meet">

<g transform="translate(0.000000,40.000000) scale(0.100000,-0.100000)"
fill="#000000" stroke="none">
<path d="M315 390 c6 -10 4 -12 -8 -7 -11 4 -17 1 -17 -8 0 -20 40 -28 75 -15
34 13 25 27 -24 36 -27 6 -32 4 -26 -6z"/>
<path d="M251 348 c-12 -33 -2 -57 30 -73 43 -23 52 -19 44 18 -7 32 -40 77
-57 77 -5 0 -12 -10 -17 -22z m43 -35 c9 -18 14 -33 12 -33 -6 0 -36 55 -36
66 0 11 5 3 24 -33z"/>
<path d="M528 185 c-4 -33 -2 -35 24 -35 15 0 28 4 28 10 0 5 -7 7 -15 4 -11
-5 -15 1 -15 25 0 42 -17 39 -22 -4z"/>
<path d="M628 185 c-2 -21 0 -35 7 -35 7 0 9 14 7 35 -2 19 -5 35 -7 35 -2 0
-5 -16 -7 -35z"/>
<path d="M710 185 c0 -19 5 -35 10 -35 6 0 10 16 10 35 0 19 -4 35 -10 35 -5
0 -10 -16 -10 -35z"/>
<path d="M810 185 c0 -19 5 -35 10 -35 6 0 10 16 10 35 0 19 -4 35 -10 35 -5
0 -10 -16 -10 -35z"/>
<path d="M895 185 c0 -29 4 -35 22 -35 12 0 24 4 27 9 4 5 -3 7 -14 4 -17 -5
-20 0 -20 26 0 17 -3 31 -7 31 -5 0 -8 -16 -8 -35z"/>
<path d="M990 185 c0 -32 3 -35 28 -34 16 1 20 3 10 6 -21 5 -23 19 -5 26 10
4 10 6 0 6 -7 1 -13 8 -13 16 0 8 -4 15 -10 15 -5 0 -10 -16 -10 -35z"/>
<path d="M1149 188 c-5 -36 -4 -38 23 -38 15 0 28 4 28 9 0 5 -9 7 -19 4 -16
-4 -20 1 -23 29 l-3 33 -6 -37z"/>
<path d="M1240 185 c0 -30 3 -35 24 -35 14 0 27 4 30 9 4 5 -3 7 -14 4 -22 -6
-28 12 -7 20 10 4 10 6 0 6 -7 1 -13 8 -13 16 0 8 -4 15 -10 15 -5 0 -10 -16
-10 -35z"/>
<path d="M1340 185 c0 -19 4 -35 9 -35 5 0 7 10 4 23 -5 21 -4 21 16 -3 23
-28 27 -17 9 23 -18 38 -38 34 -38 -8z"/>
<path d="M1396 204 c-9 -22 -8 -26 6 -18 8 5 9 0 6 -14 -4 -14 -1 -22 6 -22 8
0 11 12 8 35 -4 37 -16 46 -26 19z"/>
<path d="M1473 204 c-9 -24 10 -49 38 -49 20 0 24 5 24 29 0 17 -6 31 -15 34
-13 5 -13 3 -1 -11 16 -20 8 -47 -15 -47 -12 0 -15 7 -12 30 5 32 -8 41 -19
14z"/>
<path d="M1588 185 c-3 -23 0 -35 8 -35 7 0 10 9 7 23 l-5 22 20 -22 c28 -31
32 -29 31 15 -1 32 -2 34 -8 12 l-7 -25 -15 23 c-19 31 -26 28 -31 -13z"/>
</g>
</svg>
